<svg id="Layer_1" data-name="Layer 1" xmlns="http://www.w3.org/2000/svg" viewBox="0 0 1500 525"><defs><style>.cls-1{fill:#6e42e8;}.cls-2{fill:#220b60;}</style></defs><path class="cls-1" d="M480.84,166.79V358.17a55.86,55.86,0,0,1-27.9,48.37L287.17,502.25a55.74,55.74,0,0,1-55.8,0L65.6,406.54a55.81,55.81,0,0,1-27.94-48.37V166.79A55.72,55.72,0,0,1,65.6,118.46L231.37,22.75a55.74,55.74,0,0,1,55.8,0l36.59,21.13V137l-48.29-27.86a32.24,32.24,0,0,0-32.4,0L134.51,171.76a32.42,32.42,0,0,0-16.19,28.05V325.15a32.37,32.37,0,0,0,16.19,28.05l108.56,62.69a32.44,32.44,0,0,0,32.4,0L384,353.2a32.36,32.36,0,0,0,16.2-28.05V88l52.72,30.45A55.77,55.77,0,0,1,480.84,166.79Z"/><path class="cls-2" d="M250.35,193.16,203.69,220.1a17.85,17.85,0,0,0-8.92,15.45v53.88a17.85,17.85,0,0,0,8.92,15.45l46.66,26.94a17.87,17.87,0,0,0,17.84,0l46.65-26.94a17.86,17.86,0,0,0,8.93-15.45V235.55a17.86,17.86,0,0,0-8.93-15.45l-46.65-26.94A17.87,17.87,0,0,0,250.35,193.16Z"/><path class="cls-2" d="M753.76,65.75V322.06a6.31,6.31,0,0,1-6.32,6.31H716.57a6.31,6.31,0,0,1-6.31-6.31v-18.7A69.88,69.88,0,0,1,682.53,324a93.64,93.64,0,0,1-36.42,6.89q-27.92,0-50.2-12.32a88.56,88.56,0,0,1-35-35q-12.69-22.65-12.68-52t12.68-51.83a89,89,0,0,1,35-34.8q22.29-12.32,50.2-12.32a92.25,92.25,0,0,1,35.16,6.52,70.73,70.73,0,0,1,27.18,19.58v-93a6.31,6.31,0,0,1,6.31-6.31h32.68A6.31,6.31,0,0,1,753.76,65.75Zm-72.86,219a53.61,53.61,0,0,0,20.66-21.21q7.62-13.77,7.61-31.89t-7.61-31.9a53.71,53.71,0,0,0-20.66-21.2,61.7,61.7,0,0,0-58.71,0,53.71,53.71,0,0,0-20.66,21.2q-7.62,13.78-7.61,31.9t7.61,31.89a53.61,53.61,0,0,0,20.66,21.21,61.7,61.7,0,0,0,58.71,0Z"/><path class="cls-2" d="M808.37,95.14A25.43,25.43,0,0,1,800,75.75a25.43,25.43,0,0,1,8.34-19.4q8.32-7.79,20.65-7.79T849.68,56A24,24,0,0,1,858,74.66a27.34,27.34,0,0,1-8.15,20.11q-8.16,8.16-20.85,8.16Q816.71,102.93,808.37,95.14Zm4.13,39.69h32.68a6.31,6.31,0,0,1,6.32,6.31V322.06a6.31,6.31,0,0,1-6.32,6.31H812.5a6.31,6.31,0,0,1-6.31-6.31V141.14A6.31,6.31,0,0,1,812.5,134.83Z"/><path class="cls-2" d="M1206.21,153.85q21.39,21.21,21.39,63.61v104.6a6.31,6.31,0,0,1-6.32,6.31H1188.6a6.31,6.31,0,0,1-6.31-6.31v-98.8q0-25.37-11.24-38.24t-32.25-12.86q-22.85,0-36.61,15t-13.78,43v91.91a6.3,6.3,0,0,1-6.31,6.31h-32.68a6.31,6.31,0,0,1-6.31-6.31v-98.8q0-25.37-11.24-38.24t-32.26-12.86q-23.19,0-36.78,14.86t-13.6,43.13v91.91a6.3,6.3,0,0,1-6.31,6.31H910.24a6.3,6.3,0,0,1-6.31-6.31V141.14a6.3,6.3,0,0,1,6.31-6.31h30.51a6.31,6.31,0,0,1,6.31,6.31v18.33a70.43,70.43,0,0,1,27.18-19.93,92.36,92.36,0,0,1,36.25-6.89q21.75,0,38.6,8.16a62.63,62.63,0,0,1,26.64,24.1,80.6,80.6,0,0,1,30.81-23.74q18.84-8.52,41.68-8.52Q1184.82,132.65,1206.21,153.85Z"/><path class="cls-2" d="M1455.75,246.1h-146q4,21.39,20.84,33.89t41.86,12.5q28.46,0,48-16.73a6.29,6.29,0,0,1,8.86.62l16.33,18.77a6.35,6.35,0,0,1-.27,8.6,82.58,82.58,0,0,1-29,19.19q-19.95,8-45,8-31.89,0-56.18-12.68t-37.51-35.34q-13.25-22.65-13.23-51.29,0-28.28,12.87-50.92a91.27,91.27,0,0,1,35.7-35.34q22.83-12.69,51.47-12.69,28.26,0,50.56,12.51a88.53,88.53,0,0,1,34.79,35.15q12.51,22.66,12.51,52.38c0,2-.1,4.45-.29,7.45A6.34,6.34,0,0,1,1455.75,246.1Zm-128.06-64.34q-15,12.87-18.31,34.25h109.83q-2.91-21-17.76-34.07t-37-13Q1342.73,168.9,1327.69,181.76Z"/><path class="cls-1" d="M585.84,425.83a33.52,33.52,0,0,1-11.13-5.23l4.92-10.91a33.17,33.17,0,0,0,9.57,4.74,36,36,0,0,0,11.08,1.79q6.18,0,9.12-1.83a5.54,5.54,0,0,0,3-4.88,4.67,4.67,0,0,0-1.74-3.71,13.31,13.31,0,0,0-4.47-2.37c-1.82-.59-4.28-1.25-7.38-2a101.76,101.76,0,0,1-11.71-3.4,19,19,0,0,1-7.82-5.45q-3.27-3.76-3.27-10a17.42,17.42,0,0,1,3-9.88,19.74,19.74,0,0,1,8.89-7,36.27,36.27,0,0,1,14.53-2.6,48.26,48.26,0,0,1,11.71,1.43,34.91,34.91,0,0,1,10,4.11l-4.46,11a34.91,34.91,0,0,0-17.35-4.91q-6.07,0-9,2a6,6,0,0,0-2.9,5.19c0,2.14,1.12,3.74,3.35,4.78A53.42,53.42,0,0,0,604,389.76a102,102,0,0,1,11.71,3.39,19.27,19.27,0,0,1,7.82,5.37q3.27,3.66,3.27,9.92a17.06,17.06,0,0,1-3,9.79,20.16,20.16,0,0,1-9,7,36.64,36.64,0,0,1-14.58,2.59A51.29,51.29,0,0,1,585.84,425.83Z"/><path class="cls-1" d="M695.9,423.64a31.13,31.13,0,0,1-12.25-11.58,33.33,33.33,0,0,1,0-33.17,31.2,31.2,0,0,1,12.25-11.58,38.75,38.75,0,0,1,35.09,0,31.92,31.92,0,0,1,0,56.33,38.75,38.75,0,0,1-35.09,0ZM723.48,413a18.31,18.31,0,0,0,7-7.11,22.36,22.36,0,0,0,0-20.74,18.31,18.31,0,0,0-7-7.11,20.92,20.92,0,0,0-20,0,18.31,18.31,0,0,0-7,7.11,22.36,22.36,0,0,0,0,20.74,18.31,18.31,0,0,0,7,7.11,21,21,0,0,0,20,0Z"/><path class="cls-1" d="M817.81,375.81v16.54h29V404h-29v22.8H803.32V364.19h47.3v11.62Z"/><path class="cls-1" d="M922.14,376h-20v-11.8h54.53V376h-20v50.78H922.14Z"/><path class="cls-1" d="M1106.14,364.19l-20.47,62.58h-15.56l-13.77-42.38-14.21,42.38h-15.47l-20.56-62.58h15l14.12,44,14.75-44h13.42l14.3,44.34,14.57-44.34Z"/><path class="cls-1" d="M1197.87,413.36h-29l-5.55,13.41h-14.84l27.9-62.58h14.3l28,62.58h-15.2Zm-4.56-11-9.92-24-9.93,24Z"/><path class="cls-1" d="M1313.3,426.77l-12.07-17.44H1287.9v17.44h-14.48V364.19h27.09A34.74,34.74,0,0,1,1315,367a22.36,22.36,0,0,1,9.39,32,21.25,21.25,0,0,1-9.53,7.73l14,20.12Zm-3.67-48q-3.41-2.81-9.92-2.81H1287.9V397.8h11.81q6.52,0,9.92-2.86a10,10,0,0,0,3.4-8.05C1313,383.38,1311.89,380.68,1309.63,378.8Z"/><path class="cls-1" d="M1435.87,415.15v11.62h-48.46V364.19h47.3v11.62h-32.9V389.4h29v11.26h-29v14.49Z"/></svg>